<svg width="0" height="0" class="hidden">
  <symbol xmlns="http://www.w3.org/2000/svg" viewBox="0 -41 922.5 922" id="location-pin">
    <path d="M921.86 786.23l-67.426-404.609c-3.692-22.55-23.223-39.086-46.075-39.008H632.418v31.121h175.941c7.61 0 14.102 5.504 15.352 13.008l67.43 404.61a15.575 15.575 0 0 1-3.489 12.609 15.547 15.547 0 0 1-11.863 5.508H46.688a15.59 15.59 0 0 1-11.876-5.508 15.565 15.565 0 0 1-3.472-12.61l67.433-404.609c1.247-7.504 7.735-13.008 15.34-13.008H290.06v-31.12H114.113c-22.843-.06-42.351 16.46-46.047 39.007L.633 786.231a46.709 46.709 0 0 0 10.43 37.851 46.717 46.717 0 0 0 35.624 16.512H875.79a46.723 46.723 0 0 0 35.645-16.504 46.647 46.647 0 0 0 10.425-37.86zm0 0"></path>
    <path d="M461.242 529.352c4.414 0 8.621-1.883 11.57-5.168 7.797-8.688 190.731-213.774 190.731-321.633C663.543 90.828 572.973.25 461.243.25c-111.735 0-202.305 90.578-202.305 202.3 0 107.86 182.93 312.946 190.722 321.634a15.556 15.556 0 0 0 11.582 5.168zm0-497.977c94.48.102 171.067 76.684 171.176 171.176 0 74.187-114.395 221.926-171.176 287.676C404.457 424.492 290.06 276.785 290.06 202.55c.109-94.492 76.687-171.074 171.183-171.176zm0 0"></path>
    <path d="M570.172 202.55c0-60.163-48.777-108.929-108.93-108.929-60.164 0-108.937 48.766-108.937 108.93 0 60.16 48.773 108.937 108.937 108.937 60.121-.07 108.86-48.8 108.93-108.937zm-186.742 0c0-42.976 34.832-77.808 77.812-77.808 42.961 0 77.805 34.832 77.805 77.809 0 42.972-34.844 77.816-77.805 77.816-42.957-.055-77.77-34.867-77.812-77.816zm46.683 357.927h62.254v31.125h-62.254zm-46.683 0h31.125v31.125H383.43zm124.492 0h31.125v31.125h-31.125zm0 0"></path>
  </symbol>
  <symbol xmlns="http://www.w3.org/2000/svg" viewBox="0 0 31.012 31.012" id="mail">
    <path d="M25.109 21.51a.495.495 0 0 1-.342-.136l-5.754-5.398a.5.5 0 1 1 .685-.728l5.754 5.398a.5.5 0 0 1-.343.864zm-19.207 0a.5.5 0 0 1-.343-.864l5.756-5.398a.5.5 0 0 1 .685.728l-5.756 5.398a.495.495 0 0 1-.342.136z"></path>
    <path d="M28.512 26.529H2.5a2.503 2.503 0 0 1-2.5-2.5V6.982c0-1.379 1.122-2.5 2.5-2.5h26.012c1.378 0 2.5 1.121 2.5 2.5v17.047c0 1.379-1.122 2.5-2.5 2.5zM2.5 5.482c-.827 0-1.5.673-1.5 1.5v17.047c0 .827.673 1.5 1.5 1.5h26.012c.827 0 1.5-.673 1.5-1.5V6.982c0-.827-.673-1.5-1.5-1.5H2.5z"></path>
    <path d="M15.506 18.018c-.665 0-1.33-.221-1.836-.662L.83 6.155a.501.501 0 0 1-.049-.706.503.503 0 0 1 .706-.048l12.84 11.2c.639.557 1.719.557 2.357 0L29.508 5.419a.5.5 0 0 1 .658.754L17.342 17.355c-.507.442-1.171.663-1.836.663z"></path>
  </symbol>
  <symbol xmlns="http://www.w3.org/2000/svg" viewBox="0 0 472.811 472.811" id="smartphone">
    <path d="M358.75 0H114.061C97.555 0 84.128 13.428 84.128 29.934v412.944c0 16.505 13.428 29.934 29.934 29.934H358.75c16.506 0 29.934-13.428 29.934-29.934V29.934C388.683 13.428 375.256 0 358.75 0zM99.128 75.236h274.556v312.687H99.128V75.236zM114.061 15H358.75c8.234 0 14.934 6.699 14.934 14.934v35.302H99.128V29.934c0-8.235 6.699-14.934 14.933-14.934zM358.75 457.811H114.061c-8.234 0-14.934-6.699-14.934-14.934v-44.955h274.556v44.955c0 8.235-6.699 14.934-14.933 14.934z"></path>
    <path d="M236.406 404.552c-13.545 0-24.564 11.02-24.564 24.565s11.02 24.564 24.564 24.564 24.564-11.02 24.564-24.564-11.019-24.565-24.564-24.565zm0 39.129c-8.031 0-14.564-6.534-14.564-14.564 0-8.031 6.533-14.565 14.564-14.565s14.564 6.534 14.564 14.565c0 8.03-6.533 14.564-14.564 14.564zm-34-396.036h68a5 5 0 1 0 0-10h-68a5 5 0 1 0 0 10zm-17.997 0c1.31 0 2.6-.53 3.53-1.46.93-.94 1.47-2.22 1.47-3.54s-.54-2.6-1.47-3.54a5.034 5.034 0 0 0-3.53-1.46c-1.32 0-2.601.53-3.54 1.46-.93.93-1.46 2.22-1.46 3.54s.53 2.6 1.46 3.54c.93.93 2.22 1.46 3.54 1.46z"></path>
  </symbol>
</svg>