<svg xmlns="http://www.w3.org/2000/svg" style="display: none;"><symbol id="arrow-pointing-to-right" viewBox="0 0 268.832 268.832"><title>arrow-pointing-to-right</title><path d="M265.171,125.577l-80-80c-4.881-4.881-12.797-4.881-17.678,0c-4.882,4.882-4.882,12.796,0,17.678l58.661,58.661H12.5 c-6.903,0-12.5,5.597-12.5,12.5c0,6.902,5.597,12.5,12.5,12.5h213.654l-58.659,58.661c-4.882,4.882-4.882,12.796,0,17.678 c2.44,2.439,5.64,3.661,8.839,3.661s6.398-1.222,8.839-3.661l79.998-80C270.053,138.373,270.053,130.459,265.171,125.577z"/></symbol><symbol id="left-arrow" viewBox="0 0 400.004 400.004"><title>left-arrow</title><path d="M382.688,182.686H59.116l77.209-77.214c6.764-6.76,6.764-17.726,0-24.485c-6.764-6.764-17.73-6.764-24.484,0L5.073,187.757 c-6.764,6.76-6.764,17.727,0,24.485l106.768,106.775c3.381,3.383,7.812,5.072,12.242,5.072c4.43,0,8.861-1.689,12.242-5.072 c6.764-6.76,6.764-17.726,0-24.484l-77.209-77.218h323.572c9.562,0,17.316-7.753,17.316-17.315 C400.004,190.438,392.251,182.686,382.688,182.686z"/></symbol></svg>