<svg xmlns="http://www.w3.org/2000/svg">
  <defs>
    <symbol viewBox="0 0 48 48" id="icon-css">
      <path fill="#0277BD" d="M41 5H7l3 34 14 4 14-4 3-34z"/>
      <path fill="#039BE5" d="M24 8v31.9l11.2-3.2L37.7 8z"/>
      <path fill="#FFF" d="M33.1 13H24v4h4.9l-.3 4H24v4h4.4l-.3 4.5-4.1 1.4v4.2l7.9-2.6.7-11.5z"/>
      <path fill="#EEE" d="M24 13v4h-8.9l-.3-4H24zm-4.6 8l.2 4H24v-4h-4.6zm.4 6h-4l.3 5.5 7.9 2.6v-4.2l-4.1-1.4-.1-2.5z"/>
    </symbol>
    <symbol viewBox="0 0 48 48" id="icon-html">
      <path fill="#E65100" d="M41 5H7l3 34 14 4 14-4 3-34z"/>
      <path fill="#FF6D00" d="M24 8v31.9l11.2-3.2L37.7 8z"/>
      <path fill="#FFF" d="M24 25v-4h8.6l-.7 11.5-7.9 2.6v-4.2l4.1-1.4.3-4.5H24zm8.9-8l.3-4H24v4h8.9z"/>
      <path fill="#EEE" d="M24 30.9v4.2l-7.9-2.6-.4-5.5h4l.2 2.5 4.1 1.4zM19.1 17H24v-4h-9.1l.7 12H24v-4h-4.6l-.3-4z"/>
    </symbol>
    <symbol viewBox="0 0 48 48" id="icon-javascript">
      <path fill="#ffd600" d="M6 42V6h36v36H6z"/>
      <path fill="#000001" d="M29.538 32.947c.692 1.124 1.444 2.201 3.037 2.201 1.338 0 2.04-.665 2.04-1.585 0-1.101-.726-1.492-2.198-2.133l-.807-.344c-2.329-.988-3.878-2.226-3.878-4.841 0-2.41 1.845-4.244 4.728-4.244 2.053 0 3.528.711 4.592 2.573l-2.514 1.607c-.553-.988-1.151-1.377-2.078-1.377-.946 0-1.545.597-1.545 1.377 0 .964.6 1.354 1.985 1.951l.807.344C36.452 29.645 38 30.839 38 33.523 38 36.415 35.716 38 32.65 38c-2.999 0-4.702-1.505-5.65-3.368l2.538-1.685zm-11.586.082c.506.906 1.275 1.603 2.381 1.603 1.058 0 1.667-.418 1.667-2.043V22h3.333v11.101c0 3.367-1.953 4.899-4.805 4.899-2.577 0-4.437-1.746-5.195-3.368l2.619-1.603z"/>
    </symbol>
    <symbol viewBox="0 0 48 48" id="icon-npm">
      <path fill="#d50000" d="M0 15h48v17H24v3H13v-3H0V15z"/>
      <path fill="#fff" d="M3 29h5v-8h3v8h2V18H3zm13-11v14h5v-3h5V18H16zm8 8h-3v-5h3v5zm5-8v11h5v-8h3v8h3v-8h3v8h2V18z"/>
    </symbol>
    <symbol id="icon-pug" viewBox="-21 -71 681.33428 681"><title>pug</title><path d="m178.273438 21.195312c-33.3125-16.265624-77.898438-32.914062-115.019532-19.589843-23.890625 8.582031-34.472656 31.378906-33.378906 55.648437.492188 10.921875 3.890625 22.558594-.253906 33.171875-4.25 10.875-15.179688 16.886719-21.539063 26.308594-9.503906 14.074219-12.308593 35.800781.898438 48.582031 15.722656 15.210938 42.21875 6.171875 59.773437-.445312zm0 0" fill="#4f4c5f"/><path d="m460.476562 21.195312c33.308594-16.265624 77.898438-32.914062 115.019532-19.589843 23.894531 8.582031 34.472656 31.378906 33.382812 55.648437-.492187 10.921875-3.894531 22.558594.253906 33.171875 4.246094 10.875 15.179688 16.886719 21.539063 26.308594 9.5 14.074219 12.304687 35.800781-.902344 48.582031-15.722656 15.210938-42.21875 6.171875-59.769531-.445312zm0 0" fill="#4f4c5f"/><path d="m549.570312 416.484375c99.394532-171.847656-11.558593-463.097656-218.300781-408.480469-7.804687 2.066406-15.984375 2.066406-23.789062 0-206.738281-54.617187-317.695313 236.632813-218.300781 408.480469zm0 0" fill="#e8a882"/><path d="m127.738281 416.476562c-87.679687-151.582031-11.679687-396.074218 149.363281-414.125-186.964843-20.019531-282.332031 250.910157-187.921874 414.125h460.390624zm0 0" fill="#de8957"/><path d="m159.277344 491.886719c40.527344 27.207031 93.40625 43.722656 160.097656 43.722656 66.675781 0 119.550781-16.503906 160.074219-43.707031v-62.171875h-320.171875zm0 0" fill="#e8a882"/><path d="m197.835938 479.035156v-49.304687h-38.558594v62.15625c40.527344 27.207031 93.40625 43.722656 160.097656 43.722656 7.492188 0 14.789062-.21875 21.933594-.628906-58.917969-4.335938-106.371094-31.035157-143.472656-55.945313zm0 0" fill="#de8957"/><path d="m319.375 166.078125c-13.921875 0-27.84375-3.21875-40.539062-9.664063-19.917969-10.105468-43.703126-10.105468-63.625 0-4.75 2.414063-10.550782.519532-12.960938-4.226562-2.40625-4.753906-.511719-10.550781 4.234375-12.960938 25.386719-12.878906 55.695313-12.878906 81.078125 0 19.917969 10.109376 43.703125 10.109376 63.625 0 25.386719-12.878906 55.699219-12.878906 81.078125 0 4.746094 2.410157 6.640625 8.207032 4.234375 12.960938-2.414062 4.746094-8.210938 6.640625-12.957031 4.226562-19.921875-10.105468-43.710938-10.105468-63.632813 0-12.6875 6.445313-26.613281 9.664063-40.535156 9.664063zm0 0" fill="#de8957"/><path d="m319.375 100.207031c-10.285156 0-20.570312-2.378906-29.949219-7.132812-13.289062-6.75-29.164062-6.75-42.453125 0-4.746094 2.40625-10.546875.511719-12.957031-4.234375-2.40625-4.75-.511719-10.550782 4.234375-12.960938 18.753906-9.515625 41.144531-9.515625 59.902344 0 13.289062 6.746094 29.15625 6.746094 42.449218 0 18.753907-9.515625 41.148438-9.515625 59.898438 0 4.746094 2.410156 6.644531 8.210938 4.234375 12.960938-2.410156 4.746094-8.210937 6.640625-12.957031 4.234375-13.289063-6.75-29.160156-6.746094-42.449219 0-9.378906 4.753906-19.664063 7.132812-29.953125 7.132812zm0 0" fill="#de8957"/><path d="m251.875 259.988281c0-37.460937-32.210938-67.828125-71.949219-67.828125-39.730469 0-71.945312 30.367188-71.945312 67.828125 0 37.464844 32.214843 67.832031 71.945312 67.832031 39.738281 0 71.949219-30.367187 71.949219-67.832031zm0 0" fill="#5c586f"/><path d="m530.769531 259.988281c0-37.460937-32.214843-67.828125-71.945312-67.828125-39.738281 0-71.949219 30.367188-71.949219 67.828125 0 37.464844 32.210938 67.832031 71.949219 67.832031 39.730469 0 71.945312-30.367187 71.945312-67.832031zm0 0" fill="#5c586f"/><path d="m360.734375 258.914062c79.078125 11.53125 147.265625 55.707032 180.09375 119.042969 19.902344 38.40625 4.90625 85.664063-33.5 105.574219-25.4375 13.179688-54.765625 11.050781-77.464844-3.046875-32.519531-20.222656-70.277343-30.453125-108.582031-30.453125h-3.8125c-38.820312 0-76.523438 11.378906-109.875 31.234375-12.113281 7.210937-26.035156 11.066406-40.195312 11.066406-12.140626 0-24.460938-2.835937-35.976563-8.800781-38.40625-19.910156-53.40625-67.167969-33.496094-105.582031 32.824219-63.328125 101.011719-107.507813 180.089844-119.035157zm0 0" fill="#4f4c5f"/><path d="m360.734375 258.914062c-1.535156 21.496094-19.453125 38.464844-41.359375 38.464844-21.890625 0-39.824219-16.96875-41.359375-38.464844 13.515625-1.980468 27.34375-3 41.359375-3s27.847656 1.019532 41.359375 3zm0 0" fill="#423e4f"/><path d="m179.925781 264.359375c-5.320312 0-9.636719-4.316406-9.636719-9.640625v-20.734375c0-5.320313 4.316407-9.640625 9.636719-9.640625 5.328125 0 9.640625 4.320312 9.640625 9.640625v20.734375c0 5.324219-4.3125 9.640625-9.640625 9.640625zm0 0" fill="#423e4f"/><path d="m458.824219 264.359375c-5.328125 0-9.640625-4.316406-9.640625-9.640625v-20.734375c0-5.320313 4.3125-9.640625 9.640625-9.640625 5.320312 0 9.632812 4.320312 9.632812 9.640625v20.734375c0 5.324219-4.3125 9.640625-9.632812 9.640625zm0 0" fill="#423e4f"/><g fill="#5c586f"><path d="m228.9375 370.835938c0 5.480468-4.445312 9.925781-9.925781 9.925781-5.484375 0-9.929688-4.445313-9.929688-9.925781 0-5.484376 4.445313-9.925782 9.929688-9.925782 5.480469 0 9.925781 4.441406 9.925781 9.925782zm0 0"/><path d="m191.875 370.835938c0 5.480468-4.445312 9.925781-9.925781 9.925781-5.484375 0-9.925781-4.445313-9.925781-9.925781 0-5.484376 4.441406-9.925782 9.925781-9.925782 5.480469 0 9.925781 4.441406 9.925781 9.925782zm0 0"/><path d="m210.402344 390.6875c0 5.484375-4.441406 9.929688-9.925782 9.929688-5.480468 0-9.925781-4.445313-9.925781-9.929688 0-5.480469 4.445313-9.925781 9.925781-9.925781 5.484376 0 9.925782 4.445312 9.925782 9.925781zm0 0"/><path d="m429.667969 370.835938c0 5.480468-4.445313 9.925781-9.925781 9.925781-5.484376 0-9.929688-4.445313-9.929688-9.925781 0-5.484376 4.445312-9.925782 9.929688-9.925782 5.480468 0 9.925781 4.441406 9.925781 9.925782zm0 0"/><path d="m466.730469 370.835938c0 5.480468-4.445313 9.925781-9.929688 9.925781-5.480469 0-9.925781-4.445313-9.925781-9.925781 0-5.484376 4.445312-9.925782 9.925781-9.925782 5.484375 0 9.929688 4.441406 9.929688 9.925782zm0 0"/><path d="m448.199219 390.6875c0 5.484375-4.441407 9.929688-9.925781 9.929688-5.480469 0-9.925782-4.445313-9.925782-9.929688 0-5.480469 4.445313-9.925781 9.925782-9.925781 5.484374 0 9.925781 4.445312 9.925781 9.925781zm0 0"/></g></symbol>
    <symbol id="icon-sass" viewBox="0 0 512 512"><title>sass</title><path style="fill:#CD6699;" d="M511.784 329.108c-1.67-13.599-9.236-24.146-20.795-32.416 2.857 2.04 5.275 3.766-.055-.041-7.189-5.131-3.38-2.411-.047-.032-28.5-20.301-65.676-15.789-96.733-4.511-12.447-20.295-12.987-35.783-5.816-57.937.929-2.8.295-4.354-2.624-5.604-7.086-3.03-17.291-1.427-24.422.463-2.462.646-4.254 1.9-4.8 4.381-5.154 24.243-21.009 46.448-34.828 66.886-9.731-18.652-8.96-33.087-2.414-52.516.798-2.366.431-3.624-1.937-4.879-7.26-3.757-18.401-1.912-25.8.276-8.509 2.482-21.29 44.594-25.372 52.946-8.531 17.442-16.091 44.665-30.585 58.502-12.3-15.807 22.526-51.517 10.882-65.851-3.938-4.848-11.063-4.723-15.586-.616 1.085-7.608 1.648-12.609-.32-19.063-2.081-6.79-7.361-10.687-15.09-10.49-17.995.527-33.843 13.815-44.641 26.397-10.277 12.105-37.381 19.627-51.953 26.927-25.032-21.807-79.221-44.947-80.632-82.081-1.528-41.846 48.319-70.245 81.597-87.228 43.28-22.104 109.961-49.608 159.138-25.436 13.049 6.414 18.299 20.171 14.707 33.348-9.368 34.366-47.198 57.293-80.103 67.807-16.189 5.175-33.969 9.027-51.1 8.026-22.955-1.343-40.83-15.224-43.281-16.086-2.049-.389-1.888 2.261-1.347 3.664 23.816 62.433 144.417 16.681 175.956-15.371 15.189-15.421 24.413-30.365 28.351-53.894 4.616-27.583-15.634-44.842-31.004-51.957-77.918-36.072-185.636 11.168-244.553 59.327-25.568 20.901-57.552 54.11-42.874 88.946 15.93 37.805 64.736 57.19 96.503 80.312-25.704 12.773-57.862 25.983-74.518 49.933-9.524 13.729-12.903 28.359-5.811 43.966 12.572 27.568 58.285 15.622 77.573 3.471 17.67-11.13 29.563-26.07 34.7-45.228 4.455-16.609 3.541-33.866-3.856-49.512l28.585-14.458c-7.697 23.076-11.097 52.003 4.881 72.855 6.402 8.338 23.017 8.675 29.817.311 8.816-10.943 14.664-24.655 20.503-37.206-.682 9.373-1.856 19.996 1.377 28.165 3.71 9.373 12.126 11.291 20.792 5.343 26.52-18.203 43.398-68.652 56.463-98.062 3.552 12.829 7.473 24.548 13.957 36.376 1.602 2.903 1.407 4.774-.796 7.195-9.685 10.675-32.826 28.479-35.069 42.899-.524 3.371 1.713 6.599 5.686 7.37 15.573 3.108 32.838-2.531 45.482-11.078 13.188-8.922 17.446-21.087 14.245-35.515-4.576-20.771 10.993-43.98 25.801-61.03 2.719 12.908 6.816 25.331 14.143 36.606-13.075 11.483-32.58 27.764-29.779 46.939.988 6.865 7.135 11.301 14.514 9.736 15.783-3.324 29.416-10.113 39.37-22.146 9.023-10.855 5.792-22.701 1.856-34.635 23.872-6.815 48.022-8.177 71.831-.027 11.495 3.91 20.755 10.5 26.248 20.818 6.726 12.644 2.939 24.292-10.05 32.604-3.287 2.104-5.562 3.833-4.45 4.743 1.112.911 4.9 2.113 13.284-3.152 8.384-5.267 13.51-12.383 14.823-21.725a37.09 37.09 0 0 0-.024-7.755zm-398.838 25.259c-1.358 16.673-9.636 30.193-23.175 41.114-7.617 6.158-17.102 11.176-26.52 12.092-9.418.917-16.751-1.461-17.378-11.23-1.764-27.493 40.923-54.424 64.625-62.533 2.02 6.86 3.011 13.666 2.432 20.587l.016-.03zm103.102-72.453c-3.903 22.309-14.83 62.347-32.314 78.336-2.356 2.143-4.61 2.018-5.809-.771-10.345-24.059 3.671-73.669 33.082-81.328 3.457-.889 5.602.582 5.041 3.763zm70.311 81.768c8.422-8.962 16.834-17.916 25.269-26.927 1.043 10.021-17.571 29.964-25.269 26.927zm80.714-17.696c-2.348 1.273-7.621 2.515-7.827.835-1.482-12.085 11.816-24.874 20.067-30.867 4.453 11.343-.818 23.834-12.24 30.032z"/></symbol>
  </defs>
</svg>